# xmcd
#
# Track frame offsets: 
#        150
#        23284
#        53701
#        58477
#        79602
#        88334
#        135647
#
# Disc length: 2297 seconds
#
# Revision: 3
# Processed by: cddbd v1.5.2PL0 Copyright (c) Steve Scherf et al.
# Submitted via: ExactAudioCopyFreeDBPlugin 1.0
#
DISCID=5408f707
DTITLE=Birth Control - Rebirth
DYEAR=2001
DGENRE=Progressive Rock
TTITLE0=She's Got Nothing On You
TTITLE1=Mister Hero
TTITLE2=Grandjeanville
TTITLE3=No Shade Is Real
TTITLE4=MPC
TTITLE5=Together Alone Tonight
TTITLE6=Back From Hell
EXTD=Bernd Noske - Drums-Lead Vocals-Moog-Drum on Back From Hell"-Perc
EXTD=usion.\nPeter Föller: Bass Guitar-Lead Vocals-Triangle on " Toghe
EXTD=ter Alone Tonight.\nDirk Steffens: Lead guitar- Vocals-12-String 
EXTD=Guitar on " Grandjeanville".\nBruno Frenzel: Lead Guitar-Vocals-A
EXTD=lto-sax on "Mr. Hero".\nZeus B.Held - Organ-E-Piano-Mellotrone-Fl
EXTD=ute on "M.P.C."-Trumpet and Trombone on "Mr.Hero"
EXTT0=
EXTT1=
EXTT2=
EXTT3=
EXTT4=
EXTT5=
EXTT6=
PLAYORDER=
